<?xml version="1.0" standalone="no"?>
<!DOCTYPE svg PUBLIC "-//W3C//DTD SVG 20010904//EN"
 "http://www.w3.org/TR/2001/REC-SVG-20010904/DTD/svg10.dtd">
<svg version="1.0" xmlns="http://www.w3.org/2000/svg"
 width="512.000000pt" height="512.000000pt" viewBox="0 0 512.000000 512.000000"
 preserveAspectRatio="xMidYMid meet">
<metadata>
Created by potrace 1.14, written by Peter Selinger 2001-2017
</metadata>
<g transform="translate(0.000000,512.000000) scale(0.100000,-0.100000)"
fill="#000000" stroke="none">
<path d="M1845 4527 c-67 -32 -146 -120 -190 -213 -51 -106 -96 -308 -200
-884 -24 -135 -46 -252 -49 -260 -3 -8 -16 -69 -28 -135 -22 -121 -25 -276
-28 -1454 0 -81 38 -220 90 -328 40 -85 62 -117 117 -172 113 -112 225 -150
448 -151 105 0 148 -5 475 -51 241 -35 421 -14 589 67 77 36 108 59 166 117
135 138 203 314 265 687 43 255 90 469 134 605 25 77 52 169 61 205 28 118 77
696 78 915 1 189 0 206 -27 305 -25 96 -75 206 -128 283 -36 51 -130 83 -194
66 -101 -28 -154 -175 -194 -537 -17 -160 -52 -319 -80 -372 -14 -25 -56 -37
-211 -60 -147 -22 -309 -26 -409 -9 -169 27 -360 99 -464 175 -47 35 -48 37
-42 77 4 23 18 77 32 121 72 229 100 498 69 666 -10 52 -21 129 -25 170 -8 87
-19 117 -51 146 -57 51 -124 58 -204 21z m132 -82 c48 -34 69 -195 39 -301
-21 -74 -83 -343 -91 -394 -4 -25 -20 -97 -36 -162 -33 -130 -31 -169 13 -234
30 -45 153 -138 237 -180 98 -48 306 -104 430 -116 188 -18 529 16 605 60 65
38 117 190 141 419 37 347 84 503 150 503 68 0 107 -54 113 -160 4 -64 -24
-307 -54 -468 -8 -45 -19 -185 -24 -310 -12 -278 -32 -483 -60 -622 -12 -58
-24 -108 -26 -111 -2 -3 -13 -48 -24 -100 -23 -103 -41 -265 -65 -584 -18
-240 -27 -304 -60 -390 -58 -155 -88 -191 -208 -250 -177 -86 -349 -99 -725
-53 -143 18 -271 28 -360 28 -151 0 -210 12 -292 56 -118 64 -181 183 -231
431 -22 106 -22 119 -10 231 9 85 12 260 10 608 -2 359 0 516 10 589 18 143
105 567 146 717 20 70 51 212 70 316 19 104 44 219 55 255 29 92 88 177 147
210 56 31 71 33 100 12z m113 -443 c0 -74 -32 -268 -57 -347 -21 -66 -65 -153
-70 -138 -2 6 3 37 11 70 8 32 22 96 30 143 9 47 27 132 41 190 13 58 25 115
25 128 0 12 5 22 10 22 6 0 10 -29 10 -68z m1591 -414 c10 -115 0 -326 -31
-673 -27 -289 -30 -306 -104 -545 -35 -113 -69 -221 -74 -240 l-10 -35 -1 40
c-1 22 13 97 30 165 56 229 80 432 98 835 5 108 19 248 35 350 43 263 43 263
57 103z"/>
<path d="M2030 2517 c-35 -17 -70 -91 -70 -147 0 -28 9 -63 23 -90 44 -88 113
-93 155 -10 41 81 24 193 -36 240 -29 23 -38 24 -72 7z m100 -105 c0 -24 -8
-32 -26 -25 -22 8 -17 43 6 43 13 0 20 -7 20 -18z"/>
<path d="M2563 2496 c-67 -57 -69 -189 -5 -258 47 -51 113 -30 141 45 16 41
13 133 -4 167 -18 34 -61 70 -86 70 -9 0 -31 -11 -46 -24z m130 -80 c8 -20
-20 -43 -35 -28 -14 14 -3 42 16 42 7 0 16 -6 19 -14z"/>
<path d="M2259 2149 c-23 -23 -19 -54 14 -82 27 -24 72 -19 72 8 0 15 -6 19
-24 17 -23 -4 -44 15 -35 30 3 4 16 8 30 8 30 0 32 26 2 34 -34 9 -36 8 -59
-15z"/>
<path d="M2634 1946 c5 -19 -1 -30 -25 -51 -107 -89 -278 -119 -424 -74 -55
17 -78 31 -116 70 -48 49 -69 60 -69 36 0 -26 69 -93 123 -120 95 -46 187 -58
298 -37 67 13 175 62 213 98 19 18 30 23 33 15 7 -19 33 -15 33 5 0 26 -38 82
-56 82 -12 0 -15 -6 -10 -24z"/>
</g>
</svg>
